<svg width="87" height="34" viewBox="0 0 87 34" fill="none" xmlns="http://www.w3.org/2000/svg">
<path d="M0.936 1.024H2.736L3.756 1.636V8.344L4.176 8.98H6.252L6.24 10H3.636L2.628 8.512V2.044H0.936V1.024ZM8.55131 3.316H10.3513L11.3473 4.804V8.992H13.5313V10H8.05931V8.992H10.2433V4.972L9.82331 4.336H8.55131V3.316ZM10.1113 1.84H11.4793V0.472H10.1113V1.84ZM15.2546 1.024H16.3826V5.668L18.7946 3.172H20.2346L18.3266 5.128L20.7386 8.692V10H19.5986V8.848L17.5826 5.896L16.3826 7.132V10H15.2546V1.024ZM23.4579 3.544H26.8779L27.9099 5.032L25.8819 7.12H23.5659V8.308L24.0099 8.956H26.4699L27.1419 8.296L27.7659 9.088L26.8779 10H23.4579L22.4619 8.524V4.576L23.4579 3.544ZM23.5659 4.936V6.148H25.4619L26.5659 4.984L26.3019 4.576H23.9139L23.5659 4.936ZM29.7173 1.024H31.5173L32.5373 1.636V8.344L32.9573 8.98H35.0333L35.0213 10H32.4173L31.4093 8.512V2.044H29.7173V1.024ZM37.3326 3.316H39.1326L40.1286 4.804V8.992H42.3126V10H36.8406V8.992H39.0246V4.972L38.6046 4.336H37.3326V3.316ZM38.8926 1.84H40.2606V0.472H38.8926V1.84ZM45.0559 3.544H48.5239L49.5319 5.044V8.956L48.5239 10H45.0679L44.0479 8.5V4.588L45.0559 3.544ZM45.1639 8.332L45.5959 8.968H48.0679L48.3799 8.644V5.2L47.9599 4.576H45.4879L45.1639 4.924V8.332ZM51.2312 3.544H52.3592V4.06L53.2232 3.544H55.7072L56.7152 5.02V10H55.5752V5.188L55.1552 4.576H52.6832L52.3592 4.912V10H51.2312V3.544Z" fill="white"/>
<path d="M2.448 18.8H7.296L8.4 20.464L7.088 21.744L6.32 20.608H3.2L2.912 20.912V22.784L3.392 23.488H7.44L8.72 25.424V28.64L7.408 30H1.824L0.88 28.656L2.144 27.344L2.768 28.192H6.608L6.784 28.048V25.744L6.464 25.296H2.416L0.976 23.152V20.336L2.448 18.8ZM12.0898 18.032H14.0258V21.168H16.6178V22.976H14.0258V27.504L14.4738 28.192H15.8178L16.9538 27.056L17.9778 28.544L16.6178 30H13.5298L12.0898 27.888V22.976H10.8098V21.168H12.0898V18.032ZM21.6195 21.184H26.4355L27.8755 23.328V28.48L26.4035 30H21.6035L20.1475 27.856V22.704L21.6195 21.184ZM22.0675 27.504L22.5315 28.192H25.6355L25.9235 27.888V23.664L25.4595 22.976H22.3715L22.0675 23.312V27.504ZM32.5093 21.184H36.0293L37.4373 23.328V28.48L35.9653 30H32.5413L31.6613 29.488V33.456H29.7253V21.184H31.6613V21.712L32.5093 21.184ZM31.6613 27.504L32.1253 28.208H35.2133L35.5013 27.904V23.696L35.0373 22.992H31.9653L31.6613 23.296V27.504ZM38.983 18.8H40.919V26.608L41.671 27.728H41.751L42.199 27.296V23.04H44.135V26.832L44.679 27.744H44.743L45.415 27.008V18.8H47.351V27.856L45.271 30H43.767L43.239 29.088L42.391 30H40.903L38.983 27.152V18.8ZM50.1768 21.152H55.5208L56.6408 22.8V30H54.7048V29.472L53.8248 30H50.3368L48.8968 27.856V27.008L51.4728 24.32H54.7048V22.928H50.1768V21.152ZM50.8968 27.504L51.2008 28.192H54.6408V26.144H52.1927L50.8968 27.472V27.504ZM60.0585 18.032H61.9945V21.168H64.5865V22.976H61.9945V27.504L62.4425 28.192H63.7865L64.9225 27.056L65.9465 28.544L64.5865 30H61.4985L60.0585 27.888V22.976H58.7785V21.168H60.0585V18.032ZM69.6043 21.152H74.4043L75.7323 23.12L74.4843 24.416L73.5243 23.008H70.4683L70.1163 23.376V27.616L70.6123 28.352H73.6843L74.7723 27.248L75.7003 28.64L74.3883 30H69.5883L68.1803 27.904V22.624L69.6043 21.152ZM77.694 17.696H79.63V21.712L80.494 21.184H83.934L85.422 23.28V30H83.486V23.648L83.022 22.976H79.95L79.63 23.28V30H77.694V17.696Z" fill="white"/>
</svg>
